# xmcd
# Copyright (C) 1995-1998 Ti Kan
#
# Track frame offsets:
#       150
#       14831
#       33871
#       46735
#       57764
#       71272
#       91787
#       108082
#       126470
#       141735
#
# Disc length: 2142 seconds
#
# Revision: 0
# Processed by: cddbd v1.5.2PL0 Copyright (c) Steve Scherf et al.
# Submitted via: CD-Import v1.0
#
DISCID=85085c0a
DTITLE=John Courage - Tales From...
DYEAR=2007
DGENRE=
TTITLE0=Shell
TTITLE1=Ephriam
TTITLE2=Christy
TTITLE3=Nice
TTITLE4=Santa Rosa
TTITLE5=Redwoods
TTITLE6=Flying Goat Coffee
TTITLE7=Fix Gear
TTITLE8=California
TTITLE9=Jane White
EXTD=
EXTT0=
EXTT1=
EXTT2=
EXTT3=
EXTT4=
EXTT5=
EXTT6=
EXTT7=
EXTT8=
EXTT9=
PLAYORDER=
